<?xml version="1.0" encoding="utf-8"?>
<!-- Svg Vector Icons : http://www.onlinewebfonts.com/icon -->
<!DOCTYPE svg PUBLIC "-//W3C//DTD SVG 1.1//EN" "http://www.w3.org/Graphics/SVG/1.1/DTD/svg11.dtd">
<svg version="1.1" xmlns="http://www.w3.org/2000/svg" xmlns:xlink="http://www.w3.org/1999/xlink" x="0px" y="0px" viewBox="0 0 1000 1000" enable-background="new 0 0 1000 1000" xml:space="preserve">
<metadata> Svg Vector Icons : http://www.onlinewebfonts.com/icon </metadata>
<g><g transform="translate(0.000000,512.000000) scale(0.100000,-0.100000)"><path d="M372.7,4998.7c-88-26.8-225.8-168.4-250.7-258.3c-30.6-111-28.7-1787.3,1.9-1890.6c32.5-107.2,160.7-231.5,267.9-260.3c181.8-49.8,375.1,26.8,468.8,187.5c53.6,88,53.6,93.8,59.3,470.7l7.7,380.8l1111.8-1109.9c897.5-895.6,1129-1115.6,1188.4-1134.8c181.8-57.4,401.9,30.6,486,197.1c57.4,109.1,63.2,260.3,13.4,357.8c-17.2,36.4-524.3,558.8-1123.3,1161.6L1511.3,4193.1l371.2,7.7c365.5,5.7,373.2,5.7,461.2,59.3c160.7,93.8,237.3,287,187.5,468.8c-28.7,107.2-153.1,235.4-260.2,267.9C2173.4,5025.5,472.2,5027.4,372.7,4998.7z"/><path d="M7720.9,4998.7c-93.8-26.8-225.8-168.4-252.6-269.8c-49.7-181.8,26.8-375.1,187.5-468.8c88-53.6,95.7-53.6,461.2-59.3l371.2-7.7L7376.5,3081.3L6266.6,1967.6l-21.1-105.2c-38.3-197.1,40.2-361.7,210.5-447.8c116.7-57.4,231.6-65.1,338.7-21c49.8,21,407.6,367.4,1175,1132.8l1102.2,1102.2l7.7-380.8c5.7-377,5.7-382.7,59.3-470.7c93.8-160.7,285.1-237.3,466.9-185.6c112.9,30.6,237.3,149.3,269.8,258.3c32.5,112.9,32.5,1777.7,0,1890.6c-30.6,101.4-160.7,231.5-256.4,258.3C9523.5,5025.5,7810.8,5023.6,7720.9,4998.7z"/><path d="M3212.5-1132.5c-59.3-21.1-315.7-266-1180.7-1130.9L927.7-3367.5l-7.7,373.2l-5.7,373.2l-57.4,91.8C772.7-2393.5,631-2320.8,478-2334.2c-133.9-11.5-239.2-74.6-313.8-189.5l-53.6-80.4v-949.1v-949.1l53.6-80.4c28.7-44,88-103.3,132-132l80.4-53.6l899.4-5.7c1016.1-5.7,1025.7-5.7,1150.1,120.5c189.5,187.5,149.3,499.4-82.3,635.3c-88,53.6-93.8,53.6-470.7,59.3l-380.8,7.7l1100.3,1102.2c606.6,608.5,1117.5,1134.8,1134.8,1171.1c42.1,80.4,44,235.4,5.7,325.3C3648.8-1155.4,3417.2-1057.8,3212.5-1132.5z"/><path d="M6459.8-1151.6C6258.9-1253,6178.5-1496,6280-1697c13.4-26.8,520.5-545.4,1127.1-1152l1100.3-1102.2l-380.8-7.7c-377-5.7-382.7-5.7-470.8-59.3c-160.7-93.8-237.3-287-187.5-468.8c28.7-107.2,153.1-235.4,260.2-267.9c112.9-32.5,1777.7-32.5,1890.6,0c107.2,32.5,227.7,156.9,258.3,264.1c17.2,65.1,21,313.8,17.2,987.4L9889-2604l-53.6,80.4c-74.6,114.8-179.9,178-313.8,189.5c-153.1,13.4-294.7-59.3-378.9-195.2l-57.4-91.8l-5.7-373.2l-7.7-373.2L7960.1-2255.7C7005.2-1304.7,6834.9-1142,6769.8-1124.8C6649.3-1092.3,6565.1-1099.9,6459.8-1151.6z"/></g></g>
</svg>